<svg xmlns="http://www.w3.org/2000/svg" viewBox="0 0 16 16" width="16" height="16">
	<style>
		tspan { white-space:pre }
		.shp0 { fill: #d3d3d3 } 
	</style>
	<path id="Shape copy 2" fill-rule="evenodd" class="shp0" d="M8 0C12.41 0 16 3.59 16 8C16 12.41 12.41 16 8 16C3.59 16 0 12.41 0 8C0 3.59 3.59 0 8 0ZM9.99 8.28L10.16 6.64L8.69 6.64L8.69 5.68C8.69 5.32 8.93 5.23 9.1 5.23C9.27 5.23 10.13 5.23 10.13 5.23L10.13 3.64L8.71 3.63C7.12 3.63 6.76 4.82 6.76 5.58L6.76 6.64L5.84 6.64L5.84 8.28L6.76 8.28C6.76 10.39 6.76 12.92 6.76 12.92L8.69 12.92C8.69 12.92 8.69 10.36 8.69 8.28L9.99 8.28Z" />
</svg>