<svg xmlns="http://www.w3.org/2000/svg" viewBox="0 0 16 16" width="16" height="16">
	<style>
		tspan { white-space:pre }
		.shp0 { fill: #d3d3d3 } 
	</style>
	<path id="Shape copy 3" fill-rule="evenodd" class="shp0" d="M7.94 0C12.33 0 15.89 3.56 15.89 7.94C15.89 12.32 12.32 15.89 7.94 15.89C3.56 15.89 0 12.32 0 7.94C0 3.56 3.56 0 7.94 0ZM12.46 5.17C12.46 4.21 11.68 3.43 10.72 3.43L5.17 3.43C4.21 3.43 3.43 4.21 3.43 5.17L3.43 10.72C3.43 11.68 4.21 12.46 5.17 12.46L10.72 12.46C11.68 12.46 12.46 11.68 12.46 10.72L12.46 5.17Z" />
</svg>