<svg xmlns="http://www.w3.org/2000/svg" viewBox="0 0 18 16" width="18" height="16">
	<style>
		tspan { white-space:pre }
		.shp0 { fill: #d3d3d3 } 
	</style>
	<path id="Shape copy" fill-rule="evenodd" class="shp0" d="M9.5 14.9C8.29 14.9 7.13 14.68 6.03 14.25C4.1 15.33 1.44 15.71 1.32 15.72C1.31 15.72 1.3 15.72 1.28 15.72C1.18 15.72 1.08 15.67 1.03 15.57C0.98 15.46 1 15.34 1.08 15.25C1.73 14.62 2.18 13.28 2.35 11.48C1.47 10.27 1 8.88 1 7.45C1 3.34 4.81 0 9.5 0C14.19 0 18 3.34 18 7.45C18 11.56 14.19 14.9 9.5 14.9ZM5.53 6.34C4.91 6.34 4.4 6.84 4.4 7.45C4.4 8.06 4.91 8.55 5.53 8.55C6.16 8.55 6.67 8.06 6.67 7.45C6.67 6.84 6.16 6.34 5.53 6.34ZM9.5 6.34C8.87 6.34 8.37 6.84 8.37 7.45C8.37 8.06 8.87 8.55 9.5 8.55C10.13 8.55 10.63 8.06 10.63 7.45C10.63 6.84 10.13 6.34 9.5 6.34ZM13.47 6.34C12.84 6.34 12.33 6.84 12.33 7.45C12.33 8.06 12.84 8.55 13.47 8.55C14.09 8.55 14.6 8.06 14.6 7.45C14.6 6.84 14.09 6.34 13.47 6.34Z" />
</svg>