<svg xmlns="http://www.w3.org/2000/svg" viewBox="0 0 80 81" width="80" height="81">
	<style>
		tspan { white-space:pre }
		.shp0 { fill: #ecb84c } 
	</style>
	<g id="route copy">
		<path id="Shape" fill-rule="evenodd" class="shp0" d="M28.03 38.64C34.18 45.58 34.18 56.89 28.03 63.83L16.66 76.68L5.29 63.83C-0.86 56.89 -0.86 45.58 5.29 38.64C8.31 35.22 12.35 33.33 16.66 33.33C20.96 33.33 25 35.22 28.03 38.64ZM26.03 62.07C31.32 56.09 31.32 46.38 26.03 40.4C23.52 37.56 20.19 36 16.66 36C13.13 36 9.8 37.56 7.29 40.4C2 46.38 2 56.09 7.29 62.07L16.66 72.65L26.03 62.07Z" />
		<path id="Shape" fill-rule="evenodd" class="shp0" d="M65 32.68L56.38 22.96C51.74 17.73 51.74 9.23 56.38 4.01C58.67 1.42 61.73 0 64.99 0C68.26 0 71.32 1.42 73.61 4.01C78.25 9.23 78.25 17.73 73.61 22.96L65 32.68ZM58.37 5.78C54.6 10.03 54.6 16.94 58.37 21.19L65 28.66L71.62 21.19C75.39 16.94 75.39 10.03 71.62 5.78C69.84 3.77 67.49 2.67 64.99 2.67C62.5 2.67 60.15 3.77 58.37 5.78Z" />
		<path id="Shape" fill-rule="evenodd" class="shp0" d="M70.14 72.69C69.42 72.53 68.71 72.98 68.55 73.7C68.39 74.38 68.09 75 67.66 75.55C67.21 76.13 67.31 76.97 67.89 77.43C68.13 77.62 68.42 77.71 68.71 77.71C69.1 77.71 69.49 77.54 69.76 77.2C70.43 76.35 70.91 75.34 71.15 74.28C71.31 73.56 70.86 72.85 70.14 72.69L70.14 72.69Z" />
		<path id="Shape" fill-rule="evenodd" class="shp0" d="M42.66 41.33C42.08 41.33 41.52 41.23 40.99 41.03C40.31 40.77 39.53 41.11 39.27 41.8C39.01 42.49 39.35 43.26 40.04 43.52C40.87 43.84 41.75 44 42.66 44L43.13 44C43.87 44 44.47 43.4 44.47 42.67C44.47 41.93 43.87 41.33 43.13 41.33L42.66 41.33L42.66 41.33Z" />
		<path id="Shape" fill-rule="evenodd" class="shp0" d="M39.49 32.9C39.74 32.9 39.98 32.84 40.2 32.7C40.79 32.33 41.44 32.11 42.14 32.03C42.87 31.95 43.4 31.29 43.32 30.56C43.24 29.83 42.58 29.3 41.85 29.38C40.75 29.5 39.72 29.85 38.79 30.44C38.16 30.83 37.97 31.65 38.36 32.27C38.61 32.68 39.05 32.9 39.49 32.9L39.49 32.9Z" />
		<path id="Shape" fill-rule="evenodd" class="shp0" d="M24.09 77.33L21.42 77.33C20.68 77.33 20.09 77.93 20.09 78.67C20.09 79.4 20.68 80 21.42 80L24.09 80C24.82 80 25.42 79.4 25.42 78.67C25.42 77.93 24.82 77.33 24.09 77.33L24.09 77.33Z" />
		<path id="Shape" fill-rule="evenodd" class="shp0" d="M47.99 53.33C47.88 53.33 47.76 53.34 47.65 53.34C46.91 53.37 46.34 53.99 46.37 54.73C46.4 55.45 46.99 56.01 47.7 56.01C47.72 56.01 47.74 56.01 47.76 56.01L50.37 56C51.11 56 51.7 55.4 51.7 54.67C51.7 53.93 51.11 53.33 50.37 53.33L47.99 53.33L47.99 53.33Z" />
		<path id="Shape" fill-rule="evenodd" class="shp0" d="M47.32 32L49.99 32C50.73 32 51.32 31.4 51.32 30.67C51.32 29.93 50.73 29.33 49.99 29.33L47.32 29.33C46.59 29.33 45.99 29.93 45.99 30.67C45.99 31.4 46.59 32 47.32 32L47.32 32Z" />
		<path id="Shape" fill-rule="evenodd" class="shp0" d="M63.7 53.33C62.97 53.33 62.37 53.93 62.37 54.67C62.37 55.4 62.97 56 63.7 56L66.37 56C67.11 56 67.7 55.4 67.7 54.67C67.7 53.93 67.11 53.33 66.37 53.33L63.7 53.33L63.7 53.33Z" />
		<path id="Shape" fill-rule="evenodd" class="shp0" d="M68.47 42.67C68.47 41.93 67.87 41.33 67.13 41.33L64.47 41.33C63.73 41.33 63.13 41.93 63.13 42.67C63.13 43.4 63.73 44 64.47 44L67.13 44C67.87 44 68.47 43.4 68.47 42.67L68.47 42.67Z" />
		<path id="Shape" fill-rule="evenodd" class="shp0" d="M55.7 56L58.37 56C59.11 56 59.7 55.4 59.7 54.67C59.7 53.93 59.11 53.33 58.37 53.33L55.7 53.33C54.97 53.33 54.37 53.93 54.37 54.67C54.37 55.4 54.97 56 55.7 56L55.7 56Z" />
		<path id="Shape" fill-rule="evenodd" class="shp0" d="M57.99 32C58.73 32 59.32 31.4 59.32 30.67C59.32 29.93 58.73 29.33 57.99 29.33L55.32 29.33C54.59 29.33 53.99 29.93 53.99 30.67C53.99 31.4 54.59 32 55.32 32L57.99 32L57.99 32Z" />
		<path id="Shape" fill-rule="evenodd" class="shp0" d="M48.47 41.33C47.73 41.33 47.13 41.93 47.13 42.67C47.13 43.4 47.73 44 48.47 44L51.13 44C51.87 44 52.47 43.4 52.47 42.67C52.47 41.93 51.87 41.33 51.13 41.33L48.47 41.33L48.47 41.33Z" />
		<path id="Shape" fill-rule="evenodd" class="shp0" d="M60.47 42.67C60.47 41.93 59.87 41.33 59.13 41.33L56.47 41.33C55.73 41.33 55.13 41.93 55.13 42.67C55.13 43.4 55.73 44 56.47 44L59.13 44C59.87 44 60.47 43.4 60.47 42.67L60.47 42.67Z" />
		<path id="Shape" fill-rule="evenodd" class="shp0" d="M79.23 47.51C79.12 46.78 78.43 46.28 77.71 46.4C76.98 46.52 76.48 47.21 76.6 47.93C76.64 48.17 76.66 48.41 76.66 48.67C76.66 49.12 76.59 49.56 76.47 49.99C76.26 50.69 76.67 51.43 77.37 51.64C77.5 51.68 77.62 51.69 77.75 51.69C78.33 51.69 78.86 51.32 79.03 50.73C79.22 50.06 79.32 49.37 79.32 48.68C79.33 48.29 79.3 47.9 79.23 47.51L79.23 47.51Z" />
		<path id="Shape" fill-rule="evenodd" class="shp0" d="M56.09 77.33L53.42 77.33C52.68 77.33 52.09 77.93 52.09 78.67C52.09 79.4 52.68 80 53.42 80L56.09 80C56.82 80 57.42 79.4 57.42 78.67C57.42 77.93 56.82 77.33 56.09 77.33L56.09 77.33Z" />
		<path id="Shape" fill-rule="evenodd" class="shp0" d="M48.09 77.33L45.42 77.33C44.68 77.33 44.09 77.93 44.09 78.67C44.09 79.4 44.68 80 45.42 80L48.09 80C48.82 80 49.42 79.4 49.42 78.67C49.42 77.93 48.82 77.33 48.09 77.33L48.09 77.33Z" />
		<path id="Shape" fill-rule="evenodd" class="shp0" d="M62.75 66.67C62.75 65.93 62.16 65.33 61.42 65.33L58.75 65.33C58.02 65.33 57.42 65.93 57.42 66.67C57.42 67.4 58.02 68 58.75 68L61.42 68C62.16 68 62.75 67.4 62.75 66.67L62.75 66.67Z" />
		<path id="Shape" fill-rule="evenodd" class="shp0" d="M54.75 66.67C54.75 65.93 54.16 65.33 53.42 65.33L50.75 65.33C50.02 65.33 49.42 65.93 49.42 66.67C49.42 67.4 50.02 68 50.75 68L53.42 68C54.16 68 54.75 67.4 54.75 66.67L54.75 66.67Z" />
		<path id="Shape" fill-rule="evenodd" class="shp0" d="M63.99 77.33L61.42 77.33C60.68 77.33 60.08 77.93 60.08 78.67C60.08 79.4 60.68 80 61.42 80L64.05 80L64.08 78.67L64.08 80C64.82 80 65.37 79.4 65.37 78.67C65.37 77.93 64.73 77.33 63.99 77.33L63.99 77.33Z" />
		<path id="Shape" fill-rule="evenodd" class="shp0" d="M68.71 70.29C69 70.29 69.29 70.2 69.53 70.01C70.11 69.55 70.21 68.71 69.75 68.13C69.08 67.28 68.22 66.58 67.25 66.1C66.59 65.77 65.79 66.04 65.46 66.7C65.13 67.36 65.4 68.16 66.06 68.49C66.68 68.79 67.23 69.24 67.66 69.78C67.92 70.12 68.31 70.29 68.71 70.29L68.71 70.29Z" />
		<path id="Shape" fill-rule="evenodd" class="shp0" d="M73.79 52.97C73.22 53.21 72.62 53.33 71.99 53.33L71.7 53.33C70.97 53.33 70.37 53.93 70.37 54.67C70.37 55.4 70.97 56 71.7 56L71.99 56C72.97 56 73.93 55.81 74.82 55.43C75.5 55.15 75.82 54.36 75.54 53.69C75.25 53.01 74.47 52.69 73.79 52.97L73.79 52.97Z" />
		<path id="Shape" fill-rule="evenodd" class="shp0" d="M37.37 39.81C38.07 39.58 38.45 38.82 38.22 38.12C38.07 37.65 37.99 37.17 37.99 36.67C37.99 36.47 38 36.27 38.03 36.07C38.12 35.34 37.6 34.67 36.87 34.58C36.12 34.5 35.47 35.01 35.38 35.74C35.35 36.04 35.33 36.35 35.32 36.67C35.32 37.45 35.45 38.22 35.69 38.96C35.87 39.52 36.39 39.87 36.95 39.87C37.09 39.87 37.23 39.85 37.37 39.81L37.37 39.81Z" />
		<path id="Shape" fill-rule="evenodd" class="shp0" d="M32.09 77.33L29.42 77.33C28.68 77.33 28.09 77.93 28.09 78.67C28.09 79.4 28.68 80 29.42 80L32.09 80C32.82 80 33.42 79.4 33.42 78.67C33.42 77.93 32.82 77.33 32.09 77.33L32.09 77.33Z" />
		<path id="Shape" fill-rule="evenodd" class="shp0" d="M45.5 67.46C46 67.46 46.49 67.17 46.71 66.68C47.01 66.01 46.72 65.22 46.05 64.91C45.43 64.63 44.86 64.2 44.41 63.67C43.94 63.1 43.1 63.03 42.54 63.5C41.97 63.98 41.9 64.82 42.37 65.38C43.07 66.21 43.96 66.89 44.94 67.34C45.12 67.42 45.31 67.46 45.5 67.46L45.5 67.46Z" />
		<path id="Shape" fill-rule="evenodd" class="shp0" d="M75.66 42.32C74.71 41.77 73.67 41.44 72.57 41.35C71.84 41.3 71.2 41.84 71.14 42.58C71.08 43.31 71.63 43.96 72.36 44.01C73.06 44.07 73.72 44.27 74.32 44.62C74.53 44.75 74.77 44.8 74.99 44.8C75.45 44.8 75.9 44.57 76.15 44.14C76.52 43.5 76.3 42.69 75.66 42.32L75.66 42.32Z" />
		<path id="Shape" fill-rule="evenodd" class="shp0" d="M40.09 77.33L37.42 77.33C36.68 77.33 36.09 77.93 36.09 78.67C36.09 79.4 36.68 80 37.42 80L40.09 80C40.82 80 41.42 79.4 41.42 78.67C41.42 77.93 40.82 77.33 40.09 77.33L40.09 77.33Z" />
		<path id="Shape" fill-rule="evenodd" class="shp0" d="M43.41 59.79C43.54 59.1 43.82 58.47 44.23 57.9C44.67 57.31 44.54 56.47 43.95 56.04C43.35 55.6 42.52 55.73 42.08 56.32C41.43 57.21 40.99 58.21 40.79 59.28C40.65 60.01 41.12 60.71 41.85 60.85C41.93 60.86 42.01 60.87 42.1 60.87C42.72 60.87 43.28 60.42 43.41 59.79L43.41 59.79Z" />
		<path id="Shape" fill-rule="evenodd" class="shp0" d="M65.32 20C61.28 20 57.99 16.71 57.99 12.67C57.99 8.62 61.28 5.33 65.32 5.33C69.37 5.33 72.66 8.62 72.66 12.67C72.66 16.71 69.37 20 65.32 20ZM65.32 8C62.75 8 60.66 10.09 60.66 12.67C60.66 15.24 62.75 17.33 65.32 17.33C67.9 17.33 69.99 15.24 69.99 12.67C69.99 10.09 67.9 8 65.32 8Z" />
		<path id="Shape" fill-rule="evenodd" class="shp0" d="M16.66 41.33C21.07 41.33 24.66 44.92 24.66 49.33C24.66 53.75 21.07 57.33 16.66 57.33C12.25 57.33 8.66 53.75 8.66 49.33C8.66 44.92 12.25 41.33 16.66 41.33ZM16.66 54.67C19.6 54.67 21.99 52.27 21.99 49.33C21.99 46.39 19.6 44 16.66 44C13.72 44 11.32 46.39 11.32 49.33C11.32 52.27 13.72 54.67 16.66 54.67Z" />
	</g>
</svg>