<svg xmlns="http://www.w3.org/2000/svg" viewBox="0 0 80 76" width="80" height="76">
	<style>
		tspan { white-space:pre }
		.shp0 { fill: #ecb84c } 
	</style>
	<g id="restaurant copy">
		<path id="Shape" fill-rule="evenodd" class="shp0" d="M74.48 0.04C77.66 0.04 80 2.38 80 5.42L80 16.33C80 19.16 78.28 21.73 75.86 22.9L75.86 74.58C75.86 75.41 75.31 75.96 74.48 75.96L5.52 75.96C4.69 75.96 4.14 75.41 4.14 74.58L4.14 22.89C3.46 22.59 2.81 22.19 2.21 21.71C0.83 20.47 0 18.54 0 16.6L0 5.42C0 2.38 2.34 0.04 5.38 0.04L74.48 0.04ZM57.93 2.8L57.93 16.6C57.93 18.95 59.72 20.74 62.07 20.74C64.13 20.74 65.76 19.36 66.13 17.43C66.09 17.16 66.07 16.88 66.07 16.6L66.07 2.8L57.93 2.8ZM46.9 2.8L46.9 16.6C46.9 18.95 48.69 20.74 51.03 20.74C53.38 20.74 55.17 18.95 55.17 16.6L55.17 2.8L46.9 2.8ZM35.86 2.8L35.86 16.6C35.86 18.95 37.66 20.74 40 20.74C42.34 20.74 44.14 18.95 44.14 16.6L44.14 2.8L35.86 2.8ZM24.83 2.8L24.83 16.6C24.83 18.95 26.62 20.74 28.97 20.74C31.31 20.74 33.1 18.95 33.1 16.6L33.1 2.8L24.83 2.8ZM13.79 2.8L13.79 16.6C13.79 18.95 15.59 20.74 17.93 20.74C20.28 20.74 22.07 18.95 22.07 16.6L22.07 2.8L13.79 2.8ZM2.76 16.6C2.76 17.71 3.31 18.95 4.14 19.64C4.91 20.41 6.04 20.7 7.08 20.74C7.29 20.73 7.51 20.71 7.71 20.67C9.59 20.21 11.03 18.39 11.03 16.33L11.03 2.8L5.38 2.8C3.86 2.8 2.76 3.9 2.76 5.42L2.76 16.6ZM7.59 23.51C7.31 23.51 7.17 23.51 6.9 23.51L6.9 29.03L73.1 29.03L73.1 23.51C72.99 23.51 72.87 23.5 72.76 23.49C72.67 23.49 72.59 23.48 72.5 23.47C72.49 23.47 72.48 23.47 72.47 23.47C71.24 23.35 70.07 22.9 69.1 22.21C68.86 22.05 68.63 21.89 68.41 21.71C68.11 21.44 67.83 21.13 67.57 20.8C66.32 22.45 64.34 23.51 62.07 23.51C59.79 23.51 57.8 22.45 56.55 20.79C55.3 22.45 53.31 23.51 51.03 23.51C48.76 23.51 46.77 22.45 45.52 20.79C44.27 22.45 42.28 23.51 40 23.51C37.72 23.51 35.73 22.45 34.48 20.79C33.23 22.45 31.24 23.51 28.97 23.51C26.69 23.51 24.7 22.45 23.45 20.79C22.2 22.45 20.21 23.51 17.93 23.51C15.64 23.51 13.64 22.44 12.4 20.77C11.6 21.82 10.46 22.65 9.16 23.11C8.66 23.3 8.13 23.44 7.59 23.51ZM13.79 73.2L30.34 73.2L30.34 59.4L27.59 59.4C26.76 59.4 26.21 58.84 26.21 58.02C26.21 57.19 26.76 56.64 27.59 56.64L30.34 56.64L30.34 37.31L13.79 37.31L13.79 73.2ZM73.1 73.2L73.1 31.79L6.9 31.79L6.9 73.2L11.03 73.2L11.03 35.93C11.03 35.1 11.59 34.55 12.41 34.55L31.72 34.55C32.55 34.55 33.1 35.1 33.1 35.93L33.1 73.2L73.1 73.2ZM77.24 16.33L77.24 5.42C77.24 4.04 76.14 2.8 74.62 2.8L68.97 2.8L68.97 16.6C68.97 17.71 69.52 18.95 70.34 19.64C71.13 20.43 72.29 20.71 73.35 20.74C73.59 20.73 73.87 20.71 74.07 20.61C74.15 20.58 74.23 20.57 74.31 20.56C75.99 19.99 77.24 18.37 77.24 16.33L77.24 16.33Z" />
		<path id="Shape" fill-rule="evenodd" class="shp0" d="M38.62 67.68C37.79 67.68 37.24 67.13 37.24 66.3L37.24 35.93C37.24 35.1 37.79 34.55 38.62 34.55L68.97 34.55C69.79 34.55 70.34 35.1 70.34 35.93L70.34 66.3C70.34 67.13 69.79 67.68 68.97 67.68L38.62 67.68ZM57.93 60.78L55.17 60.78L55.17 64.92L60.73 64.92C61 60 62.72 55.9 65.24 53.87C61.86 51.14 59.58 44.96 59.33 37.31L48.25 37.31C47.99 44.96 45.6 51.14 42.34 53.87C44.87 55.9 46.59 60 46.86 64.92L52.41 64.92L52.41 60.78L49.66 60.78C48.83 60.78 48.28 60.23 48.28 59.4C48.28 58.57 48.83 58.02 49.66 58.02L57.93 58.02C58.76 58.02 59.31 58.57 59.31 59.4C59.31 60.23 58.76 60.78 57.93 60.78ZM67.59 64.92L67.59 55.67C65.66 56.77 63.86 60.23 63.45 64.92L67.59 64.92ZM67.59 37.31L62.07 37.31C62.34 45.04 64.83 50.56 67.59 52.08L67.59 37.31ZM40 37.31L40 52.08C42.62 50.56 45.24 45.04 45.52 37.31L40 37.31ZM40 55.67L40 64.92L44.14 64.92C43.86 60.23 42.07 56.77 40 55.67Z" />
		<path id="Shape" fill-rule="evenodd" class="shp0" d="M27.59 49.73C27.59 50.56 27.03 51.11 26.21 51.11L17.93 51.11C17.1 51.11 16.55 50.56 16.55 49.73L16.55 41.45C16.55 40.62 17.1 40.07 17.93 40.07L26.21 40.07C27.03 40.07 27.59 40.62 27.59 41.45L27.59 49.73ZM24.83 48.35L24.83 42.83L19.31 42.83L19.31 48.35L24.83 48.35Z" />
	</g>
</svg>