<svg xmlns="http://www.w3.org/2000/svg" viewBox="0 0 94 80" width="94" height="80">
	<style>
		tspan { white-space:pre }
		.shp0 { fill: #ecb84c } 
	</style>
	<g id="interface copy">
		<path id="Shape" fill-rule="evenodd" class="shp0" d="M86.76 26.39C82.24 21.88 75.91 18.66 68.95 17.34C68.11 17.18 67.29 17.73 67.14 18.58C66.98 19.42 67.53 20.24 68.37 20.4C81.64 22.92 90.9 32.19 90.9 42.95C90.9 51.81 84.63 59.77 74.54 63.73C74.02 63.93 73.65 64.4 73.57 64.95C72.96 68.95 73.79 73.02 75.83 76.41C71.37 75.21 67.76 71.77 66.36 67.1C66.14 66.4 65.47 65.94 64.74 66C63.65 66.1 62.54 66.15 61.46 66.15C51.82 66.15 42.77 62.41 37.26 56.14C36.69 55.5 35.71 55.44 35.07 56.01C34.43 56.58 34.37 57.56 34.94 58.21C41.03 65.13 50.95 69.26 61.46 69.26C62.23 69.26 63.02 69.24 63.8 69.19C64.92 72.11 66.85 74.7 69.33 76.59C72.24 78.81 75.7 79.99 79.35 79.99C79.98 79.99 80.54 79.61 80.78 79.03C81.02 78.45 80.89 77.78 80.45 77.33C77.6 74.43 76.16 70.35 76.53 66.28C81.53 64.17 85.77 61.04 88.84 57.19C92.21 52.95 94 48.02 94 42.95C94 36.93 91.43 31.05 86.76 26.39L86.76 26.39Z" />
		<path id="Shape" fill-rule="evenodd" class="shp0" d="M65.08 26.33C65.08 33.42 61.65 40.07 55.41 45.05C49.29 49.94 41.16 52.64 32.54 52.64C31.77 52.64 30.98 52.62 30.2 52.57C29.08 55.48 27.15 58.08 24.67 59.97C21.76 62.19 18.3 63.36 14.65 63.36C14.02 63.36 13.46 62.98 13.22 62.4C12.98 61.82 13.11 61.15 13.55 60.71C16.4 57.81 17.84 53.73 17.47 49.66C12.47 47.55 8.23 44.42 5.16 40.57C1.78 36.33 0 31.4 0 26.33C0 19.23 3.43 12.58 9.66 7.6C15.79 2.71 23.91 0.01 32.54 0.01C41.16 0.01 49.29 2.71 55.41 7.6C61.65 12.58 65.08 19.23 65.08 26.33ZM29.26 49.38C30.35 49.47 31.46 49.52 32.54 49.52C48.77 49.52 61.98 39.12 61.98 26.33C61.98 13.54 48.77 3.13 32.54 3.13C16.31 3.13 3.1 13.54 3.1 26.33C3.1 35.19 9.37 43.15 19.46 47.11C19.98 47.31 20.35 47.77 20.43 48.32C21.04 52.32 20.21 56.39 18.17 59.78C22.63 58.59 26.24 55.14 27.64 50.48C27.86 49.77 28.53 49.31 29.26 49.38Z" />
	</g>
</svg>