<svg xmlns="http://www.w3.org/2000/svg" viewBox="0 0 94 72" width="94" height="72">
	<style>
		tspan { white-space:pre }
		.shp0 { fill: #ecb84c } 
		.shp1 { fill: #ecb04c } 
	</style>
	<g id="transport copy">
		<path id="Shape" fill-rule="evenodd" class="shp0" d="M93.53 25.11C94 25.99 94.11 27.01 93.83 27.97L90.89 37.9L90.89 68.2C90.89 70.27 89.22 71.96 87.15 71.96L6.14 71.96C4.08 71.96 2.4 70.27 2.4 68.2L2.4 37.18C0.6 36.49 -0.4 34.5 0.15 32.61L8.98 2.71C9.45 1.13 10.92 0.02 12.57 0.02C12.93 0.02 13.29 0.07 13.63 0.18L91.3 23.3C92.26 23.58 93.05 24.23 93.53 25.11ZM88.16 68.2L88.16 47.15L85 57.87C84.53 59.45 83.06 60.56 81.41 60.56C81.05 60.56 80.69 60.51 80.35 60.4L66.3 56.22L66.3 61.67C66.3 62.43 65.69 63.04 64.94 63.04C64.18 63.04 63.57 62.43 63.57 61.67L63.57 55.76C63.57 55.64 63.59 55.53 63.61 55.42L50.13 51.41L23.33 51.41C23.08 51.41 22.87 51.2 22.87 50.95L22.87 48.04C22.87 47.79 23.08 47.58 23.33 47.58L37.28 47.58L26.93 44.5L23.33 44.5C23.08 44.5 22.87 44.3 22.87 44.04L22.87 43.29L20.04 42.45L18.35 44.14L19.03 50.34L17.99 51.63L15.81 46.69L14.09 48.42L14.27 50.25C14.27 50.29 14.26 50.32 14.24 50.34L13.6 50.99C13.59 50.99 13.58 51 13.57 51.01C13.52 51.03 13.46 51.01 13.43 50.95L12.71 49.36C12.45 49.35 12.19 49.25 11.99 49.05C11.79 48.85 11.69 48.59 11.68 48.33L10.09 47.6C10.08 47.59 10.06 47.59 10.06 47.58C10.02 47.53 10.02 47.47 10.06 47.43L10.7 46.79C10.72 46.76 10.75 46.75 10.79 46.75L12.62 46.93L14.33 45.21L9.42 43.02L10.7 41.98L16.87 42.66L17.76 41.77L5.13 38.01L5.13 68.2C5.13 68.76 5.58 69.22 6.14 69.22L63.57 69.22L63.57 67.58C63.57 66.82 64.18 66.21 64.94 66.21C65.69 66.21 66.3 66.82 66.3 67.58L66.3 69.22L87.15 69.22C87.71 69.22 88.16 68.76 88.16 68.2ZM91.21 27.19C91.28 26.93 91.26 26.66 91.13 26.42C91 26.18 90.78 26.01 90.52 25.93L70.54 19.98L69.96 21.91C69.79 22.51 69.24 22.9 68.65 22.9C68.53 22.9 68.4 22.88 68.27 22.84C67.54 22.62 67.13 21.86 67.34 21.14L67.92 19.2L12.86 2.81C12.76 2.78 12.66 2.76 12.57 2.76C12.12 2.76 11.72 3.06 11.6 3.49L2.77 33.39C2.61 33.93 2.92 34.49 3.46 34.65L58.52 51.04L58.98 49.48C59.19 48.75 59.95 48.34 60.68 48.55C61.4 48.77 61.81 49.53 61.6 50.26L61.14 51.82L81.12 57.78C81.22 57.8 81.32 57.82 81.41 57.82C81.86 57.82 82.26 57.52 82.38 57.09L91.21 27.19Z" />
		<path id="Shape" fill-rule="evenodd" class="shp0" d="M64.02 37.21C63.3 37 62.54 37.41 62.33 38.14L60.65 43.81C60.44 44.53 60.85 45.3 61.57 45.51C61.7 45.55 61.83 45.57 61.96 45.57C62.55 45.57 63.1 45.18 63.27 44.59L64.94 38.92C65.16 38.19 64.75 37.43 64.02 37.21L64.02 37.21Z" />
		<path id="Shape" fill-rule="evenodd" class="shp0" d="M67.37 25.88C66.65 25.66 65.89 26.08 65.67 26.8L64 32.47C63.78 33.2 64.2 33.96 64.92 34.18C65.05 34.21 65.18 34.23 65.31 34.23C65.9 34.23 66.44 33.85 66.62 33.25L68.29 27.58C68.5 26.86 68.09 26.09 67.37 25.88L67.37 25.88Z" />
		<path id="Shape" fill-rule="evenodd" class="shp0" d="M13.36 15.05L14.68 16.21C14.61 16.46 14.63 16.74 14.77 16.98C14.9 17.23 15.12 17.4 15.37 17.48L15.61 19.22C15.62 19.28 15.67 19.32 15.73 19.31C15.74 19.31 15.75 19.31 15.77 19.3L16.56 18.86C16.59 18.85 16.61 18.82 16.62 18.79L16.96 16.98L19.1 15.82L19.79 21.17L21.15 20.23L22.26 14.1L24.6 12.82C25.11 12.54 25.3 11.9 25.02 11.39C24.75 10.89 24.11 10.7 23.61 10.97L21.26 12.25L15.53 9.84L14.01 10.47L18.1 13.97L15.97 15.14L14.27 14.44C14.24 14.43 14.2 14.43 14.18 14.45L13.38 14.88C13.33 14.91 13.31 14.97 13.33 15.02C13.34 15.03 13.35 15.04 13.36 15.05L13.36 15.05Z" />
		<path id="Shape" fill-rule="evenodd" class="shp0" d="M55.82 42.08L8.74 28.07C8.5 28 8.25 28.13 8.18 28.38L7.35 31.17C7.32 31.28 7.33 31.41 7.39 31.52C7.45 31.62 7.54 31.7 7.66 31.74L54.74 45.75C54.78 45.76 54.83 45.77 54.87 45.77C54.95 45.77 55.02 45.75 55.09 45.71C55.19 45.66 55.27 45.56 55.31 45.44L56.13 42.65C56.2 42.41 56.06 42.16 55.82 42.08L55.82 42.08Z" />
		<path id="Shape" fill-rule="evenodd" class="shp0" d="M57.78 35.46L10.7 21.45C10.58 21.41 10.46 21.42 10.35 21.48C10.24 21.54 10.17 21.64 10.13 21.75L9.31 24.55C9.24 24.79 9.37 25.04 9.61 25.11L56.7 39.13C56.74 39.14 56.78 39.15 56.82 39.15C56.9 39.15 56.97 39.13 57.04 39.09C57.15 39.04 57.23 38.94 57.26 38.82L58.08 36.03C58.16 35.79 58.02 35.53 57.78 35.46L57.78 35.46Z" />
		<path id="Shape" fill-rule="evenodd" class="shp0" d="M59.73 28.84L26.06 18.82C25.82 18.74 25.56 18.88 25.49 19.12L24.67 21.91C24.63 22.03 24.65 22.16 24.7 22.26C24.76 22.37 24.86 22.45 24.97 22.48L58.65 32.51C58.69 32.52 58.74 32.53 58.78 32.53C58.85 32.53 58.93 32.51 59 32.47C59.1 32.41 59.18 32.32 59.22 32.2L60.04 29.41C60.11 29.17 59.97 28.91 59.73 28.84L59.73 28.84Z" />
		<path id="Shape" fill-rule="evenodd" class="shp0" d="M60.73 25.91C60.93 25.91 61.11 25.78 61.17 25.58L61.99 22.79C62.03 22.67 62.02 22.55 61.96 22.44C61.9 22.33 61.8 22.25 61.69 22.22L28.01 12.19C27.77 12.12 27.52 12.26 27.44 12.5L26.62 15.29C26.59 15.41 26.6 15.53 26.66 15.64C26.72 15.75 26.81 15.83 26.93 15.86L60.6 25.89C60.65 25.9 60.69 25.91 60.73 25.91L60.73 25.91Z" />
		<path id="Shape" fill-rule="evenodd" class="shp0" d="M58.45 61.4L9.35 61.4C9.1 61.4 8.89 61.6 8.89 61.85L8.89 64.76C8.89 65.02 9.1 65.22 9.35 65.22L58.45 65.22C58.7 65.22 58.91 65.02 58.91 64.76L58.91 61.85C58.91 61.6 58.7 61.4 58.45 61.4L58.45 61.4Z" />
		<path id="Shape" fill-rule="evenodd" class="shp1" d="M58.45 54.49L9.35 54.49C9.23 54.49 9.11 54.54 9.03 54.62C8.94 54.71 8.89 54.82 8.89 54.95L8.89 57.86C8.89 58.11 9.1 58.31 9.35 58.31L58.45 58.31C58.7 58.31 58.91 58.11 58.91 57.86L58.91 54.95C58.91 54.69 58.7 54.49 58.45 54.49L58.45 54.49Z" />
	</g>
</svg>