<svg xmlns="http://www.w3.org/2000/svg" viewBox="0 0 16 16" width="16" height="16">
	<style>
		tspan { white-space:pre }
		.shp0 { fill: #d3d3d3 } 
	</style>
	<path id="Shape copy 4" fill-rule="evenodd" class="shp0" d="M7.98 0C12.39 0 15.96 3.57 15.96 7.98C15.96 12.39 12.39 15.96 7.98 15.96C3.57 15.96 0 12.39 0 7.98C0 3.57 3.57 0 7.98 0ZM13.42 10.64C13.61 9.79 13.61 8.86 13.61 7.98C13.61 7.1 13.61 6.17 13.42 5.32C13.28 4.72 12.79 4.27 12.2 4.21C10.8 4.05 9.39 4.05 7.98 4.05C6.57 4.05 5.16 4.05 3.76 4.21C3.17 4.27 2.68 4.72 2.54 5.32C2.35 6.17 2.35 7.1 2.35 7.98C2.35 8.86 2.35 9.79 2.54 10.64C2.68 11.24 3.17 11.68 3.76 11.75C5.16 11.91 6.57 11.91 7.98 11.91C9.39 11.91 10.8 11.91 12.2 11.75C12.79 11.68 13.28 11.24 13.42 10.64Z" />
</svg>